<svg id="Layer_1" height="512" viewBox="0 0 512 512" width="512" xmlns="http://www.w3.org/2000/svg" data-name="Layer 1"><path d="m77 207h338v-97z" fill="#635e72"/><path d="m353.814 11-149.1 2.16c-11.287.16-20.714 9.36-20.714 20.65v173.19h191v-175.34a20.862 20.862 0 0 0 -21.186-20.66z" fill="#4ca987"/><path d="m184.48 33.82v173.44h-20.66v-152.79a20.654 20.654 0 0 1 20.36-20.65z" fill="#5fcda4"/><path d="m332.05 32h-105.78l-21.27 21.77v153.23h149v-152.54z" fill="#5fcda4"/><path d="m279.51 48.4a21.065 21.065 0 1 1 -21.07 21.06 21.061 21.061 0 0 1 21.07-21.06z" fill="#4ca987"/><path d="m340.52 175.11a60.7 60.7 0 0 1 -9.15 32.15h-103.73a61.019 61.019 0 1 1 112.88-32.15z" fill="#4ca987"/><path d="m294.508 115.954a61.048 61.048 0 0 0 -76.018 59.026 59.407 59.407 0 0 0 9.15 32.02h30a59.407 59.407 0 0 1 -9.15-32.02 60.89 60.89 0 0 1 46.018-59.026z" fill="#49876e"/><path d="m431.7 207h-354.7v133l86 133h268.7c16.17 0 29.3-13.48 29.3-29.65v-206.81a29.521 29.521 0 0 0 -29.3-29.54z" fill="#978cac"/><path d="m463.42 290h-62.93a29.429 29.429 0 0 0 -29.49 29.25v41.39a29.523 29.523 0 0 0 29.49 29.36h62.93a29.607 29.607 0 0 0 29.58-29.36v-41.39a29.513 29.513 0 0 0 -29.58-29.25z" fill="#798795"/><path d="m421.34 325.3a14.645 14.645 0 1 1 0 29.29h-5.65a14.645 14.645 0 0 1 0-29.29z" fill="#6d7486"/><path d="m107 207h-30v133l30 46.395z" fill="#766f84"/><path d="m104.222 331.073a85.007 85.007 0 1 1 -85.007 85.007 85 85 0 0 1 85.007-85.007z" fill="#edb740"/><path d="m104.22 355.42a60.66 60.66 0 1 1 -60.66 60.66 60.654 60.654 0 0 1 60.66-60.66z" fill="#f3ce7d"/><path d="m119.22 357.293a60.66 60.66 0 1 0 0 117.574 60.674 60.674 0 0 1 0-117.574z" fill="#ceae6f"/><g fill="#284268"><path d="m104.217 349.422a66.658 66.658 0 1 0 66.657 66.658 66.733 66.733 0 0 0 -66.657-66.658zm0 121.315a54.658 54.658 0 1 1 54.657-54.657 54.719 54.719 0 0 1 -54.657 54.657z"/><path d="m104.217 394.428a7.679 7.679 0 0 1 7.67 7.671 6 6 0 0 0 6 6 5.909 5.909 0 0 0 5.891-6 19.694 19.694 0 0 0 -13.778-18.727v-2.455a6 6 0 0 0 -12 0v2.455a19.5 19.5 0 0 0 -13.562 18.728 19.739 19.739 0 0 0 19.724 19.67 7.668 7.668 0 0 1 .138 15.33c-.032 0-.058 0-.09 0s-.062 0-.093 0a7.675 7.675 0 0 1 -7.572-7.665 6 6 0 0 0 -6-6 6.093 6.093 0 0 0 -6.108 6 19.5 19.5 0 0 0 13.563 18.73v3.077a6 6 0 0 0 12 0v-3.077a19.646 19.646 0 0 0 -5.838-38.4 7.671 7.671 0 0 1 .055-15.341z"/><path d="m467 284.146v-47.6a35.558 35.558 0 0 0 -35.3-35.546h-10.7v-91.291a6.11 6.11 0 0 0 -2.494-4.786 5.625 5.625 0 0 0 -5.076-.986l-32.43 9.241v-81.52a27.057 27.057 0 0 0 -27.395-26.658l-148.8 2.155a26.732 26.732 0 0 0 -25.645 21.223 26.744 26.744 0 0 0 -21.16 26.094v122.01l-82.273 24.765-.155.249a6.21 6.21 0 0 0 -4.572 5.763v123.563a91.489 91.489 0 1 0 99.587 148.178h261.113c19.455 0 35.3-16.2 35.3-35.653v-47.6a35.408 35.408 0 0 0 32-35.1v-41.397a35.408 35.408 0 0 0 -32-35.104zm-86-158.5 28-8v83.354h-28zm-191-91.832a14.928 14.928 0 0 1 14.685-14.657l148.858-2.157a15.3 15.3 0 0 1 10.8 4.216 14.847 14.847 0 0 1 4.657 10.442v169.342h-9v-146.537a6.129 6.129 0 0 0 -1.822-4.177l-21.755-22.413a6.2 6.2 0 0 0 -4.371-1.873h-105.781a6.048 6.048 0 0 0 -4.308 1.875l-21.137 21.7a6.19 6.19 0 0 0 -1.826 4.2v147.225h-9zm89.506 74.276a66.982 66.982 0 0 0 -67.017 66.886 65.51 65.51 0 0 0 5.311 26.024h-6.8v-144.795l17.812-18.205h100.7l18.488 18.9v144.1h-6.788a65.526 65.526 0 0 0 5.31-26.024 66.981 66.981 0 0 0 -67.016-66.886zm55.016 66.854a54.524 54.524 0 0 1 -6.608 26.056h-96.814a54.4 54.4 0 0 1 -6.609-26.024 55.017 55.017 0 0 1 110.033-.032zm-164.522-120.472c0-5.908 3-11.043 8-13.354v159.882h-8zm-12 134.542v11.986h-40.815zm6.419 278.743-2.151-2.131a6.005 6.005 0 0 0 -8.485 8.5l2.042 2.154a77.74 77.74 0 0 1 -45.825 18.973v-3.076a6 6 0 0 0 -12 0v3.076a79.832 79.832 0 0 1 -45.609-18.971l2.2-2.151a5.985 5.985 0 1 0 -8.444-8.485l-2.144 2.112a80.266 80.266 0 0 1 -18.96-45.758h3.076a6 6 0 1 0 0-12h-3.076a80.029 80.029 0 0 1 18.972-45.678l2.151 2.172a5.993 5.993 0 1 0 8.484-8.468l-2.259-2.15a79.83 79.83 0 0 1 45.609-18.97v3.076a6 6 0 0 0 12 0v-3.076a77.732 77.732 0 0 1 45.825 18.971l-2.1 2.151a6.017 6.017 0 0 0 8.532 8.486l2.155-2.191a80.049 80.049 0 0 1 18.978 45.677h-3.077a6 6 0 0 0 0 12h3.077a80.274 80.274 0 0 1 -18.971 45.757zm290.581-24.41c0 12.838-10.459 23.653-23.3 23.653h-251.5a91.494 91.494 0 0 0 -97.2-139.932v-114.068h348.7a23.545 23.545 0 0 1 23.3 23.542v47.458h-54.514a35.468 35.468 0 0 0 -35.486 35.25v41.389a35.564 35.564 0 0 0 35.486 35.361h54.514zm32-82.63a23.283 23.283 0 0 1 -23.283 23.283h-63.434a23.283 23.283 0 0 1 -23.283-23.283v-41.434a23.283 23.283 0 0 1 23.283-23.283h63.434a23.283 23.283 0 0 1 23.283 23.283z"/><path d="m421.345 319h-5.651c-11.382 0-20.641 9.618-20.641 21s9.259 21 20.641 21h5.651c11.381 0 20.64-9.618 20.64-21s-9.259-21-20.64-21zm0 30h-5.651a9.007 9.007 0 0 1 0-18h5.651a9.007 9.007 0 0 1 0 18z"/><path d="m314.108 169h-2.348a19.178 19.178 0 0 0 -18.5-13.4 19.5 19.5 0 0 0 -19.453 19.479 7.45 7.45 0 0 1 -14.9.117c0-.033 0-.061 0-.093s0-.063 0-.095a7.458 7.458 0 0 1 7.447-7.356 6.026 6.026 0 0 0 0-12.052 19.179 19.179 0 0 0 -18.49 13.4h-2.964a6 6 0 0 0 0 12h2.961a19.438 19.438 0 0 0 37.948-5.921 7.453 7.453 0 1 1 7.453 7.476 5.975 5.975 0 1 0 0 11.949 19.27 19.27 0 0 0 18.5-13.5h2.348a6 6 0 0 0 0-12z"/><path d="m279.506 42.4a27.062 27.062 0 1 0 27.062 27.062 27.094 27.094 0 0 0 -27.062-27.062zm0 42.124a15.062 15.062 0 1 1 15.062-15.062 15.08 15.08 0 0 1 -15.062 15.065z"/><path d="m100.577 233h-2.985a6 6 0 1 0 0 12h2.985a6 6 0 0 0 0-12z"/><path d="m206.555 233h-86.668a6 6 0 0 0 0 12h86.668a6 6 0 0 0 0-12z"/></g></svg>